REM DIRINDEX 1\8,1\2\11,1\3\12,1\3\14,1\5\15,1\5\16,1\6\17,1\6\18,1\4\19,1\4\20,1\4\21,1\4\22,1\7\23,1\7\24,1\7\25,1\2\9\26,1\2\9\27,1\2\10\28,1\2\10\29,1\2\10\30,1\2\10\31,1\2\10\32,1\3\13\33,1\3\13\34,1\3\13\35
REM DIRNAME folder01,folder02,folder03,folder04,folder05,folder06,folder07,folder08,folder09,folder10,folder11,folder12,folder13,folder14,folder15,folder16,folder17,folder18,folder19,folder20,folder21,folder22,folder23,folder24,folder25,folder26,folder27,folder28,folder29,folder30,folder31,folder32,folder33,folder34,folder35
TITLE ""
FILE "1-33 033_UNIT3_SET2.mp3" MP3
  TRACK 01 AUDIO
    TITLE "11:cjc123_1365"
    INDEX 01 00:00:00
  TRACK 02 AUDIO
    TITLE "0:"
    INDEX 01 00:02:47
  TRACK 03 AUDIO
    TITLE "28:cjc123_1366"
    INDEX 01 00:03:31
  TRACK 04 AUDIO
    TITLE "0:"
    INDEX 01 00:04:29
  TRACK 05 AUDIO
    TITLE "29:cjc123_1367"
    INDEX 01 00:04:42
  TRACK 06 AUDIO
    TITLE "0:"
    INDEX 01 00:05:59
  TRACK 07 AUDIO
    TITLE "30:cjc123_1368"
    INDEX 01 00:05:63
  TRACK 08 AUDIO
    TITLE "0:"
    INDEX 01 00:06:63
  TRACK 09 AUDIO
    TITLE "31:cjc123_1369"
    INDEX 01 00:07:37
  TRACK 10 AUDIO
    TITLE "0:"
    INDEX 01 00:11:46
  TRACK 11 AUDIO
    TITLE "32:cjc123_1370"
    INDEX 01 00:12:05
  TRACK 12 AUDIO
    TITLE "0:"
    INDEX 01 00:16:26
  TRACK 13 AUDIO
    TITLE "28:cjc123_1371"
    INDEX 01 00:17:00
  TRACK 14 AUDIO
    TITLE "0:"
    INDEX 01 00:18:01
  TRACK 15 AUDIO
    TITLE "29:cjc123_1372"
    INDEX 01 00:18:23
  TRACK 16 AUDIO
    TITLE "0:"
    INDEX 01 00:19:52
  TRACK 17 AUDIO
    TITLE "30:cjc123_1373"
    INDEX 01 00:19:65
  TRACK 18 AUDIO
    TITLE "0:"
    INDEX 01 00:20:73
  TRACK 19 AUDIO
    TITLE "31:cjc123_1374"
    INDEX 01 00:21:47
  TRACK 20 AUDIO
    TITLE "0:"
    INDEX 01 00:24:33
  TRACK 21 AUDIO
    TITLE "32:cjc123_1375"
    INDEX 01 00:24:65
  TRACK 22 AUDIO
    TITLE "0:"
    INDEX 01 00:27:73
  TRACK 23 AUDIO
    TITLE "28:cjc123_1376"
    INDEX 01 00:28:43
  TRACK 24 AUDIO
    TITLE "0:"
    INDEX 01 00:29:42
  TRACK 25 AUDIO
    TITLE "29:cjc123_1377"
    INDEX 01 00:29:50
  TRACK 26 AUDIO
    TITLE "0:"
    INDEX 01 00:30:61
  TRACK 27 AUDIO
    TITLE "30:cjc123_1378"
    INDEX 01 00:30:69
  TRACK 28 AUDIO
    TITLE "0:"
    INDEX 01 00:31:67
  TRACK 29 AUDIO
    TITLE "31:cjc123_1379"
    INDEX 01 00:32:39
  TRACK 30 AUDIO
    TITLE "0:"
    INDEX 01 00:37:16
  TRACK 31 AUDIO
    TITLE "32:cjc123_1380"
    INDEX 01 00:37:52
  TRACK 32 AUDIO
    TITLE "0:"
    INDEX 01 00:42:35
  TRACK 33 AUDIO
    TITLE "28:cjc123_1381"
    INDEX 01 00:43:03
  TRACK 34 AUDIO
    TITLE "0:"
    INDEX 01 00:43:68
  TRACK 35 AUDIO
    TITLE "29:cjc123_1382"
    INDEX 01 00:44:03
  TRACK 36 AUDIO
    TITLE "0:"
    INDEX 01 00:45:63
  TRACK 37 AUDIO
    TITLE "30:cjc123_1383"
    INDEX 01 00:45:73
  TRACK 38 AUDIO
    TITLE "0:"
    INDEX 01 00:46:58
  TRACK 39 AUDIO
    TITLE "31:cjc123_1384"
    INDEX 01 00:47:40
  TRACK 40 AUDIO
    TITLE "0:"
    INDEX 01 00:50:66
  TRACK 41 AUDIO
    TITLE "32:cjc123_1385"
    INDEX 01 00:51:22
  TRACK 42 AUDIO
    TITLE "0:"
    INDEX 01 00:55:61
  TRACK 43 AUDIO
    TITLE "28:cjc123_1386"
    INDEX 01 00:56:31
  TRACK 44 AUDIO
    TITLE "0:"
    INDEX 01 00:57:39
  TRACK 45 AUDIO
    TITLE "29:cjc123_1387"
    INDEX 01 00:57:50
  TRACK 46 AUDIO
    TITLE "0:"
    INDEX 01 00:58:73
  TRACK 47 AUDIO
    TITLE "30:cjc123_1388"
    INDEX 01 00:59:02
  TRACK 48 AUDIO
    TITLE "0:"
    INDEX 01 01:00:04
  TRACK 49 AUDIO
    TITLE "31:cjc123_1389"
    INDEX 01 01:00:57
  TRACK 50 AUDIO
    TITLE "0:"
    INDEX 01 01:04:07
  TRACK 51 AUDIO
    TITLE "32:cjc123_1390"
    INDEX 01 01:04:37
  TRACK 52 AUDIO
    TITLE "0:"
    INDEX 01 01:07:33
  TRACK 53 AUDIO
    TITLE "28:cjc123_1391"
    INDEX 01 01:08:03
  TRACK 54 AUDIO
    TITLE "0:"
    INDEX 01 01:09:14
  TRACK 55 AUDIO
    TITLE "29:cjc123_1392"
    INDEX 01 01:09:32
  TRACK 56 AUDIO
    TITLE "0:"
    INDEX 01 01:10:55
  TRACK 57 AUDIO
    TITLE "30:cjc123_1393"
    INDEX 01 01:10:65
  TRACK 58 AUDIO
    TITLE "0:"
    INDEX 01 01:12:07
  TRACK 59 AUDIO
    TITLE "31:cjc123_1394"
    INDEX 01 01:12:56
  TRACK 60 AUDIO
    TITLE "0:"
    INDEX 01 01:16:40
  TRACK 61 AUDIO
    TITLE "32:cjc123_1395"
    INDEX 01 01:17:12
  TRACK 62 AUDIO
    TITLE "0:"
    INDEX 01 01:20:53
  TRACK 63 AUDIO
    TITLE "28:cjc123_1396"
    INDEX 01 01:21:25
  TRACK 64 AUDIO
    TITLE "0:"
    INDEX 01 01:22:44
  TRACK 65 AUDIO
    TITLE "29:cjc123_1397"
    INDEX 01 01:22:50
  TRACK 66 AUDIO
    TITLE "0:"
    INDEX 01 01:24:02
  TRACK 67 AUDIO
    TITLE "30:cjc123_1398"
    INDEX 01 01:24:12
  TRACK 68 AUDIO
    TITLE "0:"
    INDEX 01 01:25:19
  TRACK 69 AUDIO
    TITLE "31:cjc123_1399"
    INDEX 01 01:25:68
  TRACK 70 AUDIO
    TITLE "0:"
    INDEX 01 01:29:31
  TRACK 71 AUDIO
    TITLE "32:cjc123_1400"
    INDEX 01 01:29:64
  TRACK 72 AUDIO
    TITLE "0:"
    INDEX 01 01:33:03
  TRACK 73 AUDIO
    TITLE "28:cjc123_1401"
    INDEX 01 01:33:58
  TRACK 74 AUDIO
    TITLE "0:"
    INDEX 01 01:34:57
  TRACK 75 AUDIO
    TITLE "29:cjc123_1402"
    INDEX 01 01:35:02
  TRACK 76 AUDIO
    TITLE "0:"
    INDEX 01 01:36:03
  TRACK 77 AUDIO
    TITLE "30:cjc123_1403"
    INDEX 01 01:36:11
  TRACK 78 AUDIO
    TITLE "0:"
    INDEX 01 01:37:13
  TRACK 79 AUDIO
    TITLE "31:cjc123_1404"
    INDEX 01 01:37:60
  TRACK 80 AUDIO
    TITLE "0:"
    INDEX 01 01:41:73
  TRACK 81 AUDIO
    TITLE "32:cjc123_1405"
    INDEX 01 01:42:31
  TRACK 82 AUDIO
    TITLE "0:"
    INDEX 01 01:46:00
  TRACK 83 AUDIO
    TITLE "28:cjc123_1406"
    INDEX 01 01:46:47
  TRACK 84 AUDIO
    TITLE "0:"
    INDEX 01 01:47:46
  TRACK 85 AUDIO
    TITLE "29:cjc123_1407"
    INDEX 01 01:47:58
  TRACK 86 AUDIO
    TITLE "0:"
    INDEX 01 01:49:02
  TRACK 87 AUDIO
    TITLE "30:cjc123_1408"
    INDEX 01 01:49:10
  TRACK 88 AUDIO
    TITLE "0:"
    INDEX 01 01:50:04
  TRACK 89 AUDIO
    TITLE "31:cjc123_1409"
    INDEX 01 01:50:51
  TRACK 90 AUDIO
    TITLE "0:"
    INDEX 01 01:53:55
  TRACK 91 AUDIO
    TITLE "32:cjc123_1410"
    INDEX 01 01:54:15
  TRACK 92 AUDIO
    TITLE "0:"
    INDEX 01 01:58:30
  TRACK 93 AUDIO
    TITLE "28:cjc123_1411"
    INDEX 01 01:59:10
  TRACK 94 AUDIO
    TITLE "0:"
    INDEX 01 01:59:73
  TRACK 95 AUDIO
    TITLE "29:cjc123_1412"
    INDEX 01 02:00:06
  TRACK 96 AUDIO
    TITLE "0:"
    INDEX 01 02:01:31
  TRACK 97 AUDIO
    TITLE "30:cjc123_1413"
    INDEX 01 02:01:48
  TRACK 98 AUDIO
    TITLE "0:"
    INDEX 01 02:02:30
  TRACK 99 AUDIO
    TITLE "31:cjc123_1414"
    INDEX 01 02:03:10
  TRACK 100 AUDIO
    TITLE "0:"
    INDEX 01 02:06:30
  TRACK 101 AUDIO
    TITLE "32:cjc123_1415"
    INDEX 01 02:06:65
  TRACK 102 AUDIO
    TITLE "0:"
    INDEX 01 02:11:08
  TRACK 103 AUDIO
    TITLE "28:cjc123_1416"
    INDEX 01 02:11:63
  TRACK 104 AUDIO
    TITLE "0:"
    INDEX 01 02:13:09
  TRACK 105 AUDIO
    TITLE "29:cjc123_1417"
    INDEX 01 02:13:24
  TRACK 106 AUDIO
    TITLE "0:"
    INDEX 01 02:14:41
  TRACK 107 AUDIO
    TITLE "30:cjc123_1418"
    INDEX 01 02:14:45
  TRACK 108 AUDIO
    TITLE "0:"
    INDEX 01 02:15:66
  TRACK 109 AUDIO
    TITLE "31:cjc123_1419"
    INDEX 01 02:16:38
  TRACK 110 AUDIO
    TITLE "0:"
    INDEX 01 02:19:40
  TRACK 111 AUDIO
    TITLE "32:cjc123_1420"
    INDEX 01 02:19:72
  TRACK 112 AUDIO
    TITLE "0:"
    INDEX 01 02:23:11
  TRACK 113 AUDIO
    TITLE "28:cjc123_1421"
    INDEX 01 02:23:58
  TRACK 114 AUDIO
    TITLE "0:"
    INDEX 01 02:24:59
  TRACK 115 AUDIO
    TITLE "29:cjc123_1422"
    INDEX 01 02:24:67
  TRACK 116 AUDIO
    TITLE "0:"
    INDEX 01 02:25:72
  TRACK 117 AUDIO
    TITLE "30:cjc123_1423"
    INDEX 01 02:26:03
  TRACK 118 AUDIO
    TITLE "0:"
    INDEX 01 02:27:05
  TRACK 119 AUDIO
    TITLE "31:cjc123_1424"
    INDEX 01 02:27:67
  TRACK 120 AUDIO
    TITLE "0:"
    INDEX 01 02:31:34
  TRACK 121 AUDIO
    TITLE "32:cjc123_1425"
    INDEX 01 02:31:48
  TRACK 122 AUDIO
    TITLE "0:"
    INDEX 01 02:35:41
  TRACK 123 AUDIO
    TITLE "28:cjc123_1426"
    INDEX 01 02:35:63
  TRACK 124 AUDIO
    TITLE "0:"
    INDEX 01 02:36:74
  TRACK 125 AUDIO
    TITLE "29:cjc123_1427"
    INDEX 01 02:37:19
  TRACK 126 AUDIO
    TITLE "0:"
    INDEX 01 02:38:67
  TRACK 127 AUDIO
    TITLE "30:cjc123_1428"
    INDEX 01 02:39:02
  TRACK 128 AUDIO
    TITLE "0:"
    INDEX 01 02:40:11
  TRACK 129 AUDIO
    TITLE "31:cjc123_1429"
    INDEX 01 02:40:58
  TRACK 130 AUDIO
    TITLE "0:"
    INDEX 01 02:43:74
  TRACK 131 AUDIO
    TITLE "32:cjc123_1430"
    INDEX 01 02:44:38
  TRACK 132 AUDIO
    TITLE "0:"
    INDEX 01 02:49:14
  TRACK 133 AUDIO
    TITLE "28:cjc123_1431"
    INDEX 01 02:49:69
  TRACK 134 AUDIO
    TITLE "0:"
    INDEX 01 02:50:68
  TRACK 135 AUDIO
    TITLE "29:cjc123_1432"
    INDEX 01 02:51:03
  TRACK 136 AUDIO
    TITLE "0:"
    INDEX 01 02:52:28
  TRACK 137 AUDIO
    TITLE "30:cjc123_1433"
    INDEX 01 02:52:40
  TRACK 138 AUDIO
    TITLE "0:"
    INDEX 01 02:53:45
  TRACK 139 AUDIO
    TITLE "31:cjc123_1434"
    INDEX 01 02:54:21
  TRACK 140 AUDIO
    TITLE "0:"
    INDEX 01 02:58:39
  TRACK 141 AUDIO
    TITLE "32:cjc123_1435"
    INDEX 01 02:59:11
  TRACK 142 AUDIO
    TITLE "0:"
    INDEX 01 03:03:24
  TRACK 143 AUDIO
    TITLE "28:cjc123_1436"
    INDEX 01 03:03:67
  TRACK 144 AUDIO
    TITLE "0:"
    INDEX 01 03:05:09
  TRACK 145 AUDIO
    TITLE "29:cjc123_1437"
    INDEX 01 03:05:19
  TRACK 146 AUDIO
    TITLE "0:"
    INDEX 01 03:06:46
  TRACK 147 AUDIO
    TITLE "30:cjc123_1438"
    INDEX 01 03:06:54
  TRACK 148 AUDIO
    TITLE "0:"
    INDEX 01 03:07:59
  TRACK 149 AUDIO
    TITLE "31:cjc123_1439"
    INDEX 01 03:08:27
  TRACK 150 AUDIO
    TITLE "0:"
    INDEX 01 03:11:08
  TRACK 151 AUDIO
    TITLE "32:cjc123_1440"
    INDEX 01 03:11:49
  TRACK 152 AUDIO
    TITLE "0:"
    INDEX 01 03:14:57
